G04 DipTrace 4.2.0.0*
G04 opto board.gtl*
%MOMM*%
G04 #@! TF.FileFunction,Copper,L1,Top*
G04 #@! TF.Part,Single*
%AMOUTLINE24*
4,1,16,
0.36603,1.36603,
0.06332,1.69226,
-0.35096,1.85486,
-0.79476,1.8216,
-1.18017,1.59908,
-1.43087,1.23137,
-1.4972,0.7913,
-1.36603,0.36603,
-0.36603,-1.36603,
-0.06332,-1.69226,
0.35096,-1.85486,
0.79476,-1.8216,
1.18017,-1.59908,
1.43087,-1.23137,
1.4972,-0.7913,
1.36603,-0.36603,
0.36603,1.36603,
0*%
%AMOUTLINE25*
4,1,16,
-0.36603,1.36603,
-0.7913,1.4972,
-1.23137,1.43087,
-1.59908,1.18017,
-1.8216,0.79476,
-1.85486,0.35096,
-1.69226,-0.06332,
-1.36603,-0.36603,
0.36603,-1.36603,
0.7913,-1.4972,
1.23137,-1.43087,
1.59908,-1.18017,
1.8216,-0.79476,
1.85486,-0.35096,
1.69226,0.06332,
1.36603,0.36603,
-0.36603,1.36603,
0*%
G04 #@! TA.AperFunction,CopperBalancing*
%ADD14C,0.33*%
%ADD16C,0.25*%
%ADD17C,0.635*%
G04 #@! TA.AperFunction,ComponentPad*
%ADD18R,1.6X1.6*%
%ADD19C,1.6*%
G04 #@! TA.AperFunction,ViaPad*
%ADD24C,0.7*%
%ADD70OUTLINE24*%
%ADD71OUTLINE25*%
%FSLAX35Y35*%
G04*
G71*
G90*
G75*
G01*
G04 Top*
%LPD*%
X1825000Y368380D2*
D14*
Y750000D1*
X1750000Y825000D1*
X1725000Y675000D2*
Y125000D1*
X1700000Y100000D1*
Y-100000D1*
D24*
X1725000Y675000D3*
X1750000Y825000D3*
X-300000Y1200000D3*
X100000D3*
X500000D3*
X900000D3*
X1700000D3*
X2100000D3*
X2500000D3*
X1825000Y368380D3*
X485000Y5000D3*
X-100000Y900000D3*
X300000D3*
X700000D3*
X650000Y250000D3*
X-700000Y1200000D3*
X325000Y-1200000D3*
X1900000Y900000D3*
X275000Y-975000D3*
X1100000Y900000D3*
X-900000D3*
X225000Y-750000D3*
X1500000Y-875000D3*
X1425000Y-1050000D3*
X375000Y-1400000D3*
X900000Y600000D3*
X575000Y-1400000D3*
X775000D3*
X2500000Y600000D3*
X1300000D3*
X-500000Y900000D3*
X-1100000Y600000D3*
X975000Y-1400000D3*
X1175000D3*
X1375000D3*
X1575000D3*
X1500000Y300000D3*
X1900000D3*
X1475000Y-1250000D3*
X1275000D3*
X-900000Y300000D3*
X-1300000D3*
X1075000Y-1200000D3*
X950000Y-1050000D3*
X1025000Y-925000D3*
X800000Y-900000D3*
X650000Y-750000D3*
X2100000Y0D3*
X2500000D3*
X500000Y-600000D3*
X1375000Y-675000D3*
X-1100000Y0D3*
X1275000Y-500000D3*
X550000Y-300000D3*
X725000Y-325000D3*
X675000Y-425000D3*
X425000Y-775000D3*
X1900000Y-300000D3*
X325000Y-575000D3*
X300000Y-650000D3*
X-900000Y-300000D3*
X-1300000D3*
X375000Y-675000D3*
X450000Y-700000D3*
X400000Y-600000D3*
X350000Y-750000D3*
X625000Y-275000D3*
X2100000Y-600000D3*
X2500000D3*
X575000Y-375000D3*
X-700000Y-600000D3*
X-1100000D3*
X650000Y-350000D3*
X-500000Y-900000D3*
X750000Y-400000D3*
X820000Y-70000D3*
X1175000Y-150000D3*
X1400000Y-275000D3*
X2300000Y-900000D3*
X1550000Y-550000D3*
X-900000Y-900000D3*
X-50000Y-500000D3*
X500000Y600000D3*
X-25000Y-725000D3*
X25000Y-975000D3*
X50000Y-1175000D3*
X100000Y-1400000D3*
X1175000Y-1050000D3*
X2500000Y-1200000D3*
X875000Y-775000D3*
X-700000Y-1200000D3*
X725000Y-625000D3*
X600000Y-500000D3*
X825000Y-275000D3*
X1075000Y-325000D3*
X1300000Y0D3*
X-253204Y1412833D2*
D16*
X2535009D1*
X-362896Y1388167D2*
X2535009D1*
X-450958Y1363500D2*
X2535009D1*
X-515216Y1338833D2*
X2535009D1*
X-579473Y1314167D2*
X2535009D1*
X-628546Y1289500D2*
X2535009D1*
X-676959Y1264833D2*
X2535009D1*
X-723394Y1240167D2*
X2535009D1*
X-761383Y1215500D2*
X2535009D1*
X-799371Y1190833D2*
X2535009D1*
X-837335Y1166167D2*
X2535009D1*
X-868805Y1141500D2*
X2535009D1*
X-899273Y1116833D2*
X2535009D1*
X-929718Y1092167D2*
X2535009D1*
X-960015Y1067500D2*
X2535009D1*
X-984698Y1042833D2*
X2535009D1*
X-1009356Y1018167D2*
X2535009D1*
X-1034014Y993500D2*
X2535009D1*
X-1058697Y968833D2*
X2535009D1*
X-1079986Y944167D2*
X2535009D1*
X-1099981Y919500D2*
X-779151D1*
X-635040D2*
X2535009D1*
X-1119952Y894833D2*
X-830885D1*
X-583331D2*
X1706469D1*
X1793549D2*
X2535009D1*
X-1139923Y870167D2*
X-862452D1*
X-551763D2*
X1680273D1*
X1819745D2*
X2535009D1*
X-1159893Y845500D2*
X-885084D1*
X-529107D2*
X1669140D1*
X1830854D2*
X2535009D1*
X-1176007Y820833D2*
X-902003D1*
X-512213D2*
X1666601D1*
X1845063D2*
X2535009D1*
X-1192022Y796167D2*
X-914576D1*
X-499615D2*
X1671801D1*
X1869721D2*
X2535009D1*
X-1208062Y771500D2*
X-923609D1*
X-490582D2*
X1686694D1*
X1886176D2*
X2535009D1*
X-1224078Y746833D2*
X-929542D1*
X-484649D2*
X1685082D1*
X1890009D2*
X2535009D1*
X-1240094Y722167D2*
X-932594D1*
X-481597D2*
X1656640D1*
X1890009D2*
X2535009D1*
X-1253131Y697500D2*
X-932887D1*
X-481305D2*
X1644677D1*
X1890009D2*
X2535009D1*
X-1265704Y672833D2*
X-930470D1*
X-483746D2*
X1641528D1*
X1890009D2*
X2535009D1*
X-1278277Y648167D2*
X-925196D1*
X-489019D2*
X1646069D1*
X1890009D2*
X2535009D1*
X-1290850Y623500D2*
X-916871D1*
X-497320D2*
X1659985D1*
X1890009D2*
X2535009D1*
X-1303424Y598833D2*
X-905128D1*
X-509063D2*
X1660009D1*
X1890009D2*
X2535009D1*
X-1314654Y574167D2*
X-889259D1*
X-524932D2*
X1660009D1*
X1890009D2*
X2535009D1*
X-1324127Y549500D2*
X-868067D1*
X-546124D2*
X1660009D1*
X1890009D2*
X2535009D1*
X-1333599Y524833D2*
X-838941D1*
X-575250D2*
X1660009D1*
X1890009D2*
X2535009D1*
X-1343072Y500167D2*
X-794044D1*
X-620147D2*
X1660009D1*
X1890009D2*
X2535009D1*
X-1352545Y475500D2*
X908691D1*
X1023114D2*
X1660009D1*
X1890009D2*
X2535009D1*
X-1362017Y450833D2*
X849047D1*
X1082758D2*
X1660009D1*
X1890009D2*
X2535009D1*
X-1369390Y426167D2*
X-140553D1*
X140570D2*
X815282D1*
X1116523D2*
X1660009D1*
X1890009D2*
X2535009D1*
X-1376007Y401500D2*
X-201099D1*
X201093D2*
X791381D1*
X1140424D2*
X1660009D1*
X1901410D2*
X2535009D1*
X-1382598Y376833D2*
X-244776D1*
X244770D2*
X773608D1*
X1158197D2*
X1660009D1*
X1908051D2*
X2535009D1*
X-1389215Y352167D2*
X-280274D1*
X280292D2*
X760326D1*
X1171454D2*
X1660009D1*
X1906855D2*
X2535009D1*
X-1395831Y327500D2*
X-308424D1*
X308417D2*
X750732D1*
X1181073D2*
X1660009D1*
X1897431D2*
X2535009D1*
X-1402447Y302833D2*
X-332691D1*
X332709D2*
X744286D1*
X1187519D2*
X1660009D1*
X1875092D2*
X2535009D1*
X-1406768Y278167D2*
X-354322D1*
X354340D2*
X740746D1*
X1191059D2*
X1660009D1*
X1790009D2*
X2535009D1*
X-1410675Y253500D2*
X-371827D1*
X371845D2*
X739965D1*
X1191840D2*
X1660009D1*
X1790009D2*
X2535009D1*
X-1414605Y228833D2*
X-388306D1*
X388324D2*
X741918D1*
X1189887D2*
X1660009D1*
X1790009D2*
X2535009D1*
X-1418512Y204167D2*
X-401246D1*
X401239D2*
X746679D1*
X1185126D2*
X1660009D1*
X1790009D2*
X2535009D1*
X-1422418Y179500D2*
X-413404D1*
X413422D2*
X754443D1*
X1177362D2*
X1660009D1*
X1790009D2*
X2535009D1*
X-1426324Y154833D2*
X-422974D1*
X422968D2*
X765551D1*
X1166254D2*
X1660009D1*
X1790009D2*
X2535009D1*
X-1428082Y130167D2*
X-431348D1*
X431342D2*
X780639D1*
X1151166D2*
X1642773D1*
X1790009D2*
X2535009D1*
X-1429376Y105500D2*
X-438209D1*
X438227D2*
X800756D1*
X1131049D2*
X1635253D1*
X1786884D2*
X2535009D1*
X-1430670Y80833D2*
X-443116D1*
X443134D2*
X828197D1*
X1103608D2*
X1635009D1*
X1771723D2*
X2535009D1*
X-1431964Y56167D2*
X-447633D1*
X447651D2*
X869091D1*
X1062690D2*
X1635009D1*
X1765009D2*
X2535009D1*
X-1433258Y31500D2*
X-449317D1*
X449335D2*
X1635009D1*
X1765009D2*
X2535009D1*
X-1434552Y6833D2*
X-450953D1*
X450946D2*
X1571508D1*
X1828510D2*
X2535009D1*
X-1433990Y-17833D2*
X-450221D1*
X485370D2*
X1571508D1*
X1828510D2*
X2535009D1*
X-1432696Y-42500D2*
X-448609D1*
X592255D2*
X1571508D1*
X1828510D2*
X2535009D1*
X-1431402Y-67167D2*
X-445850D1*
X699140D2*
X1571508D1*
X1828510D2*
X2535009D1*
X-1430108Y-91833D2*
X-440943D1*
X806025D2*
X1571508D1*
X1828510D2*
X2535009D1*
X-1428814Y-116500D2*
X-435816D1*
X912934D2*
X1571508D1*
X1828510D2*
X2535009D1*
X-1427520Y-141167D2*
X-427613D1*
X1019819D2*
X1571508D1*
X1828510D2*
X2059521D1*
X2200483D2*
X2535009D1*
X-1424566Y-165833D2*
X-419239D1*
X1126703D2*
X1571508D1*
X1828510D2*
X2013134D1*
X2246869D2*
X2535009D1*
X-1420660Y-190500D2*
X-407984D1*
X1233588D2*
X1571508D1*
X1828510D2*
X1984936D1*
X2275068D2*
X2535009D1*
X-1416754Y-215167D2*
X-395826D1*
X1336298D2*
X1571508D1*
X1828510D2*
X1965160D1*
X2294843D2*
X2535009D1*
X-1412847Y-239833D2*
X-380958D1*
X1350238D2*
X1950976D1*
X2309028D2*
X2535009D1*
X-1408941Y-264500D2*
X-364478D1*
X1364179D2*
X1941064D1*
X2318940D2*
X2535009D1*
X-1405035Y-289167D2*
X-344679D1*
X1378119D2*
X1637572D1*
X1762421D2*
X1934814D1*
X2325190D2*
X2535009D1*
X-1399493Y-313833D2*
X-323048D1*
X1392060D2*
X1605566D1*
X1794428D2*
X1931811D1*
X2328193D2*
X2535009D1*
X-1392877Y-338500D2*
X-295875D1*
X1406000D2*
X1587524D1*
X1812470D2*
X1931957D1*
X2328046D2*
X2535009D1*
X-1386261Y-363167D2*
X-265235D1*
X1419965D2*
X1577001D1*
X1822992D2*
X1935253D1*
X2324750D2*
X2535009D1*
X-1379669Y-387833D2*
X-228126D1*
X1433905D2*
X1572094D1*
X1827900D2*
X1941845D1*
X2318158D2*
X2535009D1*
X-1373053Y-412500D2*
X-178785D1*
X1447846D2*
X1572118D1*
X1827875D2*
X1952123D1*
X2307880D2*
X2535009D1*
X-1366436Y-437167D2*
X-100733D1*
X1461786D2*
X1577099D1*
X1822895D2*
X1966772D1*
X2293232D2*
X2535009D1*
X-1357794Y-461833D2*
X-14991D1*
X1475727D2*
X1587719D1*
X1812275D2*
X1987157D1*
X2272821D2*
X2535009D1*
X-1348321Y-486500D2*
X-14991D1*
X1489667D2*
X1605883D1*
X1794111D2*
X2016454D1*
X2243549D2*
X2535009D1*
X-1338848Y-511167D2*
X-14991D1*
X1503608D2*
X1638183D1*
X1761811D2*
X2066186D1*
X2193793D2*
X2535009D1*
X-1329376Y-535833D2*
X-14991D1*
X1517548D2*
X2535009D1*
X-1319903Y-560500D2*
X-13429D1*
X1531488D2*
X2535009D1*
X-1310382Y-585167D2*
X-9303D1*
X1545429D2*
X1645653D1*
X1754364D2*
X2535009D1*
X-1297808Y-609833D2*
X-5201D1*
X1559369D2*
X1609496D1*
X1790522D2*
X2535009D1*
X-1285235Y-634500D2*
X-1099D1*
X1573310D2*
X1589867D1*
X1810126D2*
X2535009D1*
X-1272686Y-659167D2*
X3027D1*
X1821698D2*
X2535009D1*
X-1260113Y-683833D2*
X7128D1*
X1827460D2*
X2535009D1*
X-1247540Y-708500D2*
X11254D1*
X1828217D2*
X2535009D1*
X-1232940Y-733167D2*
X15356D1*
X1824067D2*
X2535009D1*
X-1216925Y-757833D2*
X-342921D1*
X-174688D2*
X19457D1*
X1814447D2*
X2535009D1*
X-1200909Y-782500D2*
X-389039D1*
X-128570D2*
X23583D1*
X1797724D2*
X2535009D1*
X-1184893Y-807167D2*
X-418629D1*
X-98956D2*
X27685D1*
X2065009D2*
X2535009D1*
X-1168878Y-831833D2*
X-440113D1*
X-77472D2*
X31811D1*
X2065009D2*
X2535009D1*
X-1150982Y-856500D2*
X-456202D1*
X-61407D2*
X35912D1*
X2065009D2*
X2535009D1*
X-1131012Y-881167D2*
X-468116D1*
X-49493D2*
X40014D1*
X2065009D2*
X2535009D1*
X-1111041Y-905833D2*
X-476588D1*
X-41021D2*
X44140D1*
X2211957D2*
X2535009D1*
X-1091070Y-930500D2*
X-481983D1*
X-35626D2*
X48241D1*
X2253095D2*
X2535009D1*
X-1071099Y-955167D2*
X-484547D1*
X-33062D2*
X52367D1*
X2279340D2*
X2535009D1*
X-1047686Y-979833D2*
X-484376D1*
X-33233D2*
X56469D1*
X2297895D2*
X2535009D1*
X-1023028Y-1004500D2*
X-481446D1*
X-36163D2*
X60570D1*
X2311200D2*
X2535009D1*
X-998370Y-1029167D2*
X-475660D1*
X-41949D2*
X64696D1*
X2320380D2*
X2535009D1*
X-973687Y-1053833D2*
X-466773D1*
X-50836D2*
X68798D1*
X2325995D2*
X2535009D1*
X-946612Y-1078500D2*
X-454371D1*
X-63238D2*
X72900D1*
X2328388D2*
X2535009D1*
X-916143Y-1103167D2*
X-437672D1*
X-79913D2*
X77026D1*
X2327655D2*
X2535009D1*
X-885699Y-1127833D2*
X-415333D1*
X-102252D2*
X81127D1*
X2323774D2*
X2535009D1*
X-855230Y-1152500D2*
X-384327D1*
X-133282D2*
X85253D1*
X2316498D2*
X2535009D1*
X-820416Y-1177167D2*
X-334229D1*
X-183380D2*
X89355D1*
X2305487D2*
X2535009D1*
X-782428Y-1201833D2*
X93456D1*
X2289862D2*
X2535009D1*
X-744439Y-1226500D2*
X97582D1*
X2268134D2*
X2535009D1*
X-703790Y-1251167D2*
X101684D1*
X2236445D2*
X2535009D1*
X-655377Y-1275833D2*
X105810D1*
X2065009D2*
X2082787D1*
X2177216D2*
X2535009D1*
X-606964Y-1300500D2*
X109911D1*
X2065009D2*
X2535009D1*
X-550836Y-1325167D2*
X114013D1*
X2065009D2*
X2535009D1*
X-486578Y-1349833D2*
X118139D1*
X2065009D2*
X2535009D1*
X-413922Y-1374500D2*
X122240D1*
X2065009D2*
X2535009D1*
X-321856Y-1399167D2*
X126366D1*
X2065009D2*
X2535009D1*
X-183795Y-1423833D2*
X130468D1*
X2065009D2*
X2535009D1*
X1189051Y246307D2*
X1187999Y233814D1*
X1186249Y221400D1*
X1183805Y209104D1*
X1180676Y196964D1*
X1176871Y185019D1*
X1172402Y173306D1*
X1167283Y161862D1*
X1161531Y150722D1*
X1155163Y139923D1*
X1148200Y129498D1*
X1140663Y119480D1*
X1132577Y109900D1*
X1123965Y100789D1*
X1114857Y92175D1*
X1105280Y84085D1*
X1095264Y76544D1*
X1084842Y69578D1*
X1074045Y63206D1*
X1062908Y57450D1*
X1051465Y52328D1*
X1039754Y47855D1*
X1027810Y44046D1*
X1015671Y40912D1*
X1003375Y38464D1*
X990962Y36710D1*
X978470Y35654D1*
X965938Y35300D1*
X953407Y35649D1*
X940914Y36701D1*
X928500Y38451D1*
X916204Y40895D1*
X904064Y44024D1*
X892119Y47829D1*
X880406Y52298D1*
X868962Y57417D1*
X857822Y63169D1*
X847023Y69537D1*
X836598Y76500D1*
X826580Y84037D1*
X817000Y92123D1*
X807889Y100735D1*
X799275Y109843D1*
X791185Y119420D1*
X783644Y129436D1*
X776678Y139858D1*
X770306Y150655D1*
X764550Y161792D1*
X759428Y173235D1*
X754955Y184946D1*
X751146Y196890D1*
X748012Y209029D1*
X745564Y221325D1*
X743810Y233738D1*
X742754Y246230D1*
X742400Y258762D1*
X742749Y271293D1*
X743801Y283786D1*
X745551Y296200D1*
X747995Y308496D1*
X751124Y320636D1*
X754929Y332581D1*
X759398Y344294D1*
X764517Y355738D1*
X770269Y366878D1*
X776637Y377677D1*
X783600Y388102D1*
X791137Y398120D1*
X799223Y407700D1*
X807835Y416811D1*
X816943Y425425D1*
X826520Y433515D1*
X836536Y441056D1*
X846958Y448022D1*
X857755Y454394D1*
X868892Y460150D1*
X880335Y465272D1*
X892046Y469745D1*
X903990Y473554D1*
X916129Y476688D1*
X928425Y479136D1*
X940838Y480890D1*
X953330Y481946D1*
X965862Y482300D1*
X978393Y481951D1*
X990886Y480899D1*
X1003300Y479149D1*
X1015596Y476705D1*
X1027736Y473576D1*
X1039681Y469771D1*
X1051394Y465302D1*
X1062838Y460183D1*
X1073978Y454431D1*
X1084777Y448063D1*
X1095202Y441100D1*
X1105220Y433563D1*
X1114800Y425477D1*
X1123911Y416865D1*
X1132525Y407757D1*
X1140615Y398180D1*
X1148156Y388164D1*
X1155122Y377742D1*
X1161494Y366945D1*
X1167250Y355808D1*
X1172372Y344365D1*
X1176845Y332654D1*
X1180654Y320710D1*
X1183788Y308571D1*
X1186236Y296275D1*
X1187990Y283862D1*
X1189046Y271370D1*
X1189400Y258800D1*
X1189051Y246307D1*
X-483949Y694607D2*
X-485001Y682114D1*
X-486751Y669700D1*
X-489195Y657404D1*
X-492324Y645264D1*
X-496129Y633319D1*
X-500598Y621606D1*
X-505717Y610162D1*
X-511469Y599022D1*
X-517837Y588223D1*
X-524800Y577798D1*
X-532337Y567780D1*
X-540423Y558200D1*
X-549035Y549089D1*
X-558143Y540475D1*
X-567720Y532385D1*
X-577736Y524844D1*
X-588158Y517878D1*
X-598955Y511506D1*
X-610092Y505750D1*
X-621535Y500628D1*
X-633246Y496155D1*
X-645190Y492346D1*
X-657329Y489212D1*
X-669625Y486764D1*
X-682038Y485010D1*
X-694530Y483954D1*
X-707062Y483600D1*
X-719593Y483949D1*
X-732086Y485001D1*
X-744500Y486751D1*
X-756796Y489195D1*
X-768936Y492324D1*
X-780881Y496129D1*
X-792594Y500598D1*
X-804038Y505717D1*
X-815178Y511469D1*
X-825977Y517837D1*
X-836402Y524800D1*
X-846420Y532337D1*
X-856000Y540423D1*
X-865111Y549035D1*
X-873725Y558143D1*
X-881815Y567720D1*
X-889356Y577736D1*
X-896322Y588158D1*
X-902694Y598955D1*
X-908450Y610092D1*
X-913572Y621535D1*
X-918045Y633246D1*
X-921854Y645190D1*
X-924988Y657329D1*
X-927436Y669625D1*
X-929190Y682038D1*
X-930246Y694530D1*
X-930600Y707062D1*
X-930251Y719593D1*
X-929199Y732086D1*
X-927449Y744500D1*
X-925005Y756796D1*
X-921876Y768936D1*
X-918071Y780881D1*
X-913602Y792594D1*
X-908483Y804038D1*
X-902731Y815178D1*
X-896363Y825977D1*
X-889400Y836402D1*
X-881863Y846420D1*
X-873777Y856000D1*
X-865165Y865111D1*
X-856057Y873725D1*
X-846480Y881815D1*
X-836464Y889356D1*
X-826042Y896322D1*
X-815245Y902694D1*
X-804108Y908450D1*
X-792665Y913572D1*
X-780954Y918045D1*
X-769010Y921854D1*
X-756871Y924988D1*
X-744575Y927436D1*
X-732162Y929190D1*
X-719670Y930246D1*
X-707138Y930600D1*
X-694607Y930251D1*
X-682114Y929199D1*
X-669700Y927449D1*
X-657404Y925005D1*
X-645264Y921876D1*
X-633319Y918071D1*
X-621606Y913602D1*
X-610162Y908483D1*
X-599022Y902731D1*
X-588223Y896363D1*
X-577798Y889400D1*
X-567780Y881863D1*
X-558200Y873777D1*
X-549089Y865165D1*
X-540475Y856057D1*
X-532385Y846480D1*
X-524844Y836464D1*
X-517878Y826042D1*
X-511506Y815245D1*
X-505750Y804108D1*
X-500628Y792665D1*
X-496155Y780954D1*
X-492346Y769010D1*
X-489212Y756871D1*
X-486764Y744575D1*
X-485010Y732162D1*
X-483954Y719670D1*
X-483600Y707100D1*
X-483949Y694607D1*
X-35649Y-978393D2*
X-36701Y-990886D1*
X-38451Y-1003300D1*
X-40895Y-1015596D1*
X-44024Y-1027736D1*
X-47829Y-1039681D1*
X-52298Y-1051394D1*
X-57417Y-1062838D1*
X-63169Y-1073978D1*
X-69537Y-1084777D1*
X-76500Y-1095202D1*
X-84037Y-1105220D1*
X-92123Y-1114800D1*
X-100735Y-1123911D1*
X-109843Y-1132525D1*
X-119420Y-1140615D1*
X-129436Y-1148156D1*
X-139858Y-1155122D1*
X-150655Y-1161494D1*
X-161792Y-1167250D1*
X-173235Y-1172372D1*
X-184946Y-1176845D1*
X-196890Y-1180654D1*
X-209029Y-1183788D1*
X-221325Y-1186236D1*
X-233738Y-1187990D1*
X-246230Y-1189046D1*
X-258762Y-1189400D1*
X-271293Y-1189051D1*
X-283786Y-1187999D1*
X-296200Y-1186249D1*
X-308496Y-1183805D1*
X-320636Y-1180676D1*
X-332581Y-1176871D1*
X-344294Y-1172402D1*
X-355738Y-1167283D1*
X-366878Y-1161531D1*
X-377677Y-1155163D1*
X-388102Y-1148200D1*
X-398120Y-1140663D1*
X-407700Y-1132577D1*
X-416811Y-1123965D1*
X-425425Y-1114857D1*
X-433515Y-1105280D1*
X-441056Y-1095264D1*
X-448022Y-1084842D1*
X-454394Y-1074045D1*
X-460150Y-1062908D1*
X-465272Y-1051465D1*
X-469745Y-1039754D1*
X-473554Y-1027810D1*
X-476688Y-1015671D1*
X-479136Y-1003375D1*
X-480890Y-990962D1*
X-481946Y-978470D1*
X-482300Y-965938D1*
X-481951Y-953407D1*
X-480899Y-940914D1*
X-479149Y-928500D1*
X-476705Y-916204D1*
X-473576Y-904064D1*
X-469771Y-892119D1*
X-465302Y-880406D1*
X-460183Y-868962D1*
X-454431Y-857822D1*
X-448063Y-847023D1*
X-441100Y-836598D1*
X-433563Y-826580D1*
X-425477Y-817000D1*
X-416865Y-807889D1*
X-407757Y-799275D1*
X-398180Y-791185D1*
X-388164Y-783644D1*
X-377742Y-776678D1*
X-366945Y-770306D1*
X-355808Y-764550D1*
X-344365Y-759428D1*
X-332654Y-754955D1*
X-320710Y-751146D1*
X-308571Y-748012D1*
X-296275Y-745564D1*
X-283862Y-743810D1*
X-271370Y-742754D1*
X-258838Y-742400D1*
X-246307Y-742749D1*
X-233814Y-743801D1*
X-221400Y-745551D1*
X-209104Y-747995D1*
X-196964Y-751124D1*
X-185019Y-754929D1*
X-173306Y-759398D1*
X-161862Y-764517D1*
X-150722Y-770269D1*
X-139923Y-776637D1*
X-129498Y-783600D1*
X-119480Y-791137D1*
X-109900Y-799223D1*
X-100789Y-807835D1*
X-92175Y-816943D1*
X-84085Y-826520D1*
X-76544Y-836536D1*
X-69578Y-846958D1*
X-63206Y-857755D1*
X-57450Y-868892D1*
X-52328Y-880335D1*
X-47855Y-892046D1*
X-44046Y-903990D1*
X-40912Y-916129D1*
X-38464Y-928425D1*
X-36710Y-940838D1*
X-35654Y-953330D1*
X-35300Y-965900D1*
X-35649Y-978393D1*
X1825380Y-412480D2*
X1823515Y-424901D1*
X1820422Y-437076D1*
X1816132Y-448882D1*
X1810688Y-460202D1*
X1804143Y-470923D1*
X1796564Y-480940D1*
X1788025Y-490153D1*
X1778612Y-498469D1*
X1768417Y-505807D1*
X1757542Y-512094D1*
X1746095Y-517266D1*
X1734190Y-521273D1*
X1721945Y-524074D1*
X1709482Y-525643D1*
X1696925Y-525962D1*
X1684399Y-525030D1*
X1672027Y-522856D1*
X1659934Y-519460D1*
X1648238Y-514877D1*
X1637057Y-509152D1*
X1626502Y-502343D1*
X1616677Y-494516D1*
X1607681Y-485750D1*
X1599601Y-476132D1*
X1592520Y-465757D1*
X1586507Y-454729D1*
X1581621Y-443157D1*
X1577913Y-431156D1*
X1575417Y-418845D1*
X1574160Y-406347D1*
X1574153Y-393786D1*
X1575397Y-381286D1*
X1577880Y-368973D1*
X1581576Y-356968D1*
X1586449Y-345390D1*
X1592451Y-334356D1*
X1599521Y-323974D1*
X1607590Y-314347D1*
X1616578Y-305571D1*
X1626394Y-297735D1*
X1636943Y-290914D1*
X1648117Y-285178D1*
X1659808Y-280582D1*
X1671898Y-277174D1*
X1684267Y-274986D1*
X1696792Y-274041D1*
X1709350Y-274347D1*
X1721814Y-275903D1*
X1734062Y-278691D1*
X1745971Y-282686D1*
X1757423Y-287846D1*
X1768305Y-294121D1*
X1778508Y-301448D1*
X1787930Y-309754D1*
X1796479Y-318958D1*
X1804069Y-328967D1*
X1810624Y-339682D1*
X1816080Y-350996D1*
X1820383Y-362797D1*
X1823489Y-374969D1*
X1825367Y-387388D1*
X1826000Y-400000D1*
X1825380Y-412480D1*
X2325602Y-337492D2*
X2324415Y-349872D1*
X2322447Y-362153D1*
X2319703Y-374284D1*
X2316195Y-386216D1*
X2311938Y-397902D1*
X2306948Y-409294D1*
X2301245Y-420347D1*
X2294853Y-431017D1*
X2287797Y-441259D1*
X2280106Y-451033D1*
X2271810Y-460299D1*
X2262943Y-469021D1*
X2253541Y-477163D1*
X2243642Y-484692D1*
X2233285Y-491578D1*
X2222512Y-497793D1*
X2211366Y-503313D1*
X2199893Y-508115D1*
X2188139Y-512179D1*
X2176150Y-515489D1*
X2163975Y-518033D1*
X2151664Y-519799D1*
X2139266Y-520781D1*
X2126830Y-520974D1*
X2114407Y-520379D1*
X2102046Y-518996D1*
X2089799Y-516833D1*
X2077713Y-513897D1*
X2065837Y-510200D1*
X2054220Y-505758D1*
X2042909Y-500588D1*
X2031948Y-494711D1*
X2021381Y-488150D1*
X2011252Y-480933D1*
X2001602Y-473087D1*
X1992468Y-464646D1*
X1983888Y-455642D1*
X1975896Y-446112D1*
X1968525Y-436094D1*
X1961804Y-425629D1*
X1955761Y-414759D1*
X1950418Y-403527D1*
X1945800Y-391979D1*
X1941922Y-380161D1*
X1938802Y-368122D1*
X1936452Y-355908D1*
X1934882Y-343571D1*
X1934097Y-331158D1*
X1934101Y-318721D1*
X1934893Y-306309D1*
X1936472Y-293972D1*
X1938829Y-281760D1*
X1941956Y-269722D1*
X1945841Y-257907D1*
X1950467Y-246362D1*
X1955816Y-235134D1*
X1961866Y-224267D1*
X1968594Y-213806D1*
X1975971Y-203793D1*
X1983969Y-194268D1*
X1992554Y-185269D1*
X2001693Y-176833D1*
X2011349Y-168994D1*
X2021482Y-161783D1*
X2032052Y-155229D1*
X2043017Y-149358D1*
X2054332Y-144195D1*
X2065952Y-139760D1*
X2077830Y-136071D1*
X2089917Y-133142D1*
X2102166Y-130986D1*
X2114527Y-129612D1*
X2126951Y-129024D1*
X2139387Y-129225D1*
X2151784Y-130214D1*
X2164095Y-131988D1*
X2176268Y-134539D1*
X2188254Y-137857D1*
X2200006Y-141929D1*
X2211476Y-146737D1*
X2222619Y-152264D1*
X2233388Y-158486D1*
X2243740Y-165378D1*
X2253635Y-172913D1*
X2263032Y-181061D1*
X2271894Y-189788D1*
X2280184Y-199060D1*
X2287869Y-208839D1*
X2294918Y-219085D1*
X2301304Y-229758D1*
X2307000Y-240815D1*
X2311983Y-252210D1*
X2316233Y-263899D1*
X2319733Y-275834D1*
X2322469Y-287966D1*
X2324431Y-300248D1*
X2325609Y-312629D1*
X2326000Y-325000D1*
X2325602Y-337492D1*
X1655836Y144225D2*
X1662500Y150891D1*
X1662496Y623488D1*
X1655331Y633682D1*
X1649840Y644801D1*
X1646111Y656628D1*
X1644231Y668886D1*
X1644244Y681287D1*
X1646151Y693541D1*
X1649905Y705360D1*
X1655419Y716467D1*
X1662565Y726603D1*
X1671174Y735529D1*
X1681044Y743036D1*
X1691945Y748948D1*
X1703620Y753128D1*
X1710268Y754409D1*
X1705898Y757059D1*
X1696044Y764587D1*
X1687454Y773531D1*
X1680331Y783682D1*
X1674840Y794801D1*
X1671111Y806628D1*
X1669231Y818886D1*
X1669244Y831287D1*
X1671151Y843541D1*
X1674905Y855360D1*
X1680419Y866467D1*
X1687565Y876603D1*
X1696174Y885529D1*
X1706044Y893036D1*
X1716945Y898948D1*
X1728620Y903128D1*
X1740797Y905475D1*
X1753189Y905937D1*
X1765507Y904502D1*
X1777461Y901203D1*
X1788772Y896118D1*
X1799173Y889366D1*
X1808422Y881105D1*
X1816302Y871530D1*
X1822628Y860863D1*
X1827251Y849357D1*
X1830064Y837279D1*
X1830390Y832998D1*
X1869194Y794194D1*
X1877093Y784533D1*
X1882916Y773496D1*
X1886430Y761509D1*
X1887500Y749965D1*
X1887493Y419539D1*
X1891302Y414910D1*
X1897628Y404243D1*
X1902251Y392737D1*
X1905064Y380659D1*
X1906000Y368380D1*
X1905037Y355930D1*
X1902199Y343858D1*
X1897551Y332361D1*
X1891202Y321708D1*
X1883302Y312149D1*
X1874035Y303909D1*
X1863619Y297179D1*
X1852298Y292118D1*
X1840336Y288845D1*
X1828016Y287436D1*
X1815624Y287924D1*
X1803453Y290299D1*
X1791786Y294503D1*
X1787501Y296839D1*
X1787500Y125037D1*
X1787440Y122264D1*
X1785652Y109913D1*
X1781446Y98164D1*
X1774989Y87485D1*
X1769194Y80806D1*
X1762504Y74115D1*
X1762489Y26000D1*
X1826000D1*
Y-226000D1*
X1574000D1*
Y26000D1*
X1637489D1*
X1637500Y100000D1*
X1638746Y112417D1*
X1642433Y124339D1*
X1648424Y135299D1*
X1655836Y144225D1*
X277837Y352121D2*
X313005Y321280D1*
X318778Y315743D1*
X321247Y313042D1*
X352262Y277676D1*
X357263Y271433D1*
X359359Y268433D1*
X385493Y229321D1*
X389636Y222479D1*
X391322Y219231D1*
X412127Y177042D1*
X415342Y169718D1*
X416589Y166278D1*
X431710Y121734D1*
X433941Y114053D1*
X434729Y110479D1*
X443906Y64343D1*
X445116Y56437D1*
X445430Y52791D1*
X448507Y5852D1*
X448674Y-2145D1*
X448510Y-5801D1*
X448245Y-9851D1*
X657316Y-58090D1*
X1327811Y-212820D1*
X1333475Y-215813D1*
X1341901Y-229497D1*
X1582349Y-654909D1*
X1583791Y-651301D1*
X1585465Y-647486D1*
X1587264Y-643727D1*
X1589186Y-640031D1*
X1591230Y-636400D1*
X1593392Y-632838D1*
X1595671Y-629350D1*
X1598064Y-625939D1*
X1600568Y-622609D1*
X1603181Y-619364D1*
X1605900Y-616207D1*
X1608722Y-613142D1*
X1611644Y-610171D1*
X1614662Y-607299D1*
X1617774Y-604528D1*
X1620976Y-601862D1*
X1624264Y-599302D1*
X1627635Y-596853D1*
X1631084Y-594517D1*
X1634610Y-592296D1*
X1638207Y-590193D1*
X1641871Y-588210D1*
X1645599Y-586349D1*
X1649386Y-584613D1*
X1653229Y-583002D1*
X1657123Y-581520D1*
X1661064Y-580167D1*
X1665047Y-578945D1*
X1669069Y-577856D1*
X1673124Y-576900D1*
X1677209Y-576078D1*
X1681319Y-575393D1*
X1685449Y-574843D1*
X1689595Y-574430D1*
X1693752Y-574155D1*
X1697917Y-574017D1*
X1702083D1*
X1706247Y-574155D1*
X1710405Y-574430D1*
X1714551Y-574843D1*
X1718681Y-575393D1*
X1722791Y-576078D1*
X1726876Y-576900D1*
X1730931Y-577856D1*
X1734953Y-578945D1*
X1738936Y-580167D1*
X1742877Y-581520D1*
X1746771Y-583002D1*
X1750614Y-584613D1*
X1754401Y-586349D1*
X1758129Y-588210D1*
X1761793Y-590193D1*
X1765390Y-592296D1*
X1768915Y-594517D1*
X1772365Y-596853D1*
X1775736Y-599302D1*
X1779024Y-601861D1*
X1782226Y-604528D1*
X1785337Y-607299D1*
X1788356Y-610171D1*
X1791278Y-613141D1*
X1794099Y-616207D1*
X1796818Y-619364D1*
X1799432Y-622609D1*
X1801936Y-625939D1*
X1804329Y-629350D1*
X1806608Y-632838D1*
X1808770Y-636399D1*
X1810814Y-640031D1*
X1812736Y-643727D1*
X1814535Y-647485D1*
X1816208Y-651301D1*
X1817755Y-655170D1*
X1819173Y-659088D1*
X1820460Y-663050D1*
X1821616Y-667053D1*
X1822639Y-671093D1*
X1823528Y-675163D1*
X1824282Y-679261D1*
X1824899Y-683382D1*
X1825380Y-687520D1*
X1825725Y-691673D1*
X1825931Y-695834D1*
X1826000Y-700000D1*
X1825931Y-704166D1*
X1825725Y-708327D1*
X1825380Y-712480D1*
X1824899Y-716618D1*
X1824282Y-720739D1*
X1823528Y-724837D1*
X1822639Y-728907D1*
X1821616Y-732946D1*
X1820461Y-736949D1*
X1819173Y-740912D1*
X1817755Y-744830D1*
X1816209Y-748699D1*
X1814535Y-752514D1*
X1812736Y-756273D1*
X1810814Y-759969D1*
X1808770Y-763600D1*
X1806608Y-767162D1*
X1804329Y-770650D1*
X1801936Y-774061D1*
X1799432Y-777391D1*
X1796819Y-780636D1*
X1794100Y-783793D1*
X1790647Y-787500D1*
X2050000D1*
X2056188Y-789139D1*
X2060753Y-793625D1*
X2062497Y-799790D1*
X2062500Y-900989D1*
X2065952Y-899760D1*
X2077830Y-896071D1*
X2089917Y-893142D1*
X2102166Y-890986D1*
X2114527Y-889612D1*
X2126951Y-889024D1*
X2139387Y-889225D1*
X2151784Y-890214D1*
X2164095Y-891988D1*
X2176268Y-894539D1*
X2188254Y-897857D1*
X2200006Y-901929D1*
X2211476Y-906737D1*
X2222619Y-912264D1*
X2233388Y-918486D1*
X2243740Y-925378D1*
X2253635Y-932913D1*
X2263032Y-941061D1*
X2271894Y-949788D1*
X2280184Y-959060D1*
X2287869Y-968839D1*
X2294918Y-979085D1*
X2301304Y-989758D1*
X2307000Y-1000815D1*
X2311983Y-1012210D1*
X2316233Y-1023899D1*
X2319733Y-1035834D1*
X2322469Y-1047966D1*
X2324431Y-1060248D1*
X2325609Y-1072629D1*
X2326000Y-1085000D1*
X2325602Y-1097492D1*
X2324415Y-1109872D1*
X2322447Y-1122153D1*
X2319703Y-1134284D1*
X2316195Y-1146216D1*
X2311938Y-1157902D1*
X2306948Y-1169294D1*
X2301245Y-1180347D1*
X2294853Y-1191017D1*
X2287797Y-1201259D1*
X2280106Y-1211033D1*
X2271810Y-1220299D1*
X2262943Y-1229021D1*
X2253541Y-1237163D1*
X2243642Y-1244692D1*
X2233285Y-1251578D1*
X2222512Y-1257793D1*
X2211366Y-1263313D1*
X2199893Y-1268115D1*
X2188139Y-1272179D1*
X2176150Y-1275489D1*
X2163975Y-1278033D1*
X2151664Y-1279799D1*
X2139266Y-1280781D1*
X2126830Y-1280974D1*
X2114407Y-1280379D1*
X2102046Y-1278996D1*
X2089799Y-1276833D1*
X2077713Y-1273897D1*
X2065837Y-1270200D1*
X2062491Y-1268921D1*
X2062500Y-1425000D1*
X2062512Y-1437500D1*
X2537500Y-1437488D1*
X2537494Y1437500D1*
X1632Y1437496D1*
X-150248Y1429538D1*
X-298850Y1406000D1*
X-444182Y1367059D1*
X-584645Y1313142D1*
X-718704Y1244837D1*
X-844889Y1162890D1*
X-961814Y1068208D1*
X-1068204Y961818D1*
X-1162890Y844889D1*
X-1244836Y718709D1*
X-1313142Y584649D1*
X-1367062Y444186D1*
X-1406003Y298854D1*
X-1429541Y150252D1*
X-1437413Y0D1*
X-1429541Y-150251D1*
X-1406003Y-298854D1*
X-1367062Y-444185D1*
X-1313145Y-584648D1*
X-1244836Y-718708D1*
X-1162894Y-844892D1*
X-1068208Y-961817D1*
X-961818Y-1068208D1*
X-844893Y-1162893D1*
X-718708Y-1244836D1*
X-584649Y-1313145D1*
X-444186Y-1367062D1*
X-298855Y-1406003D1*
X-150247Y-1429542D1*
X1637Y-1437500D1*
X135244Y-1437497D1*
X-12329Y-552049D1*
X-12500Y-549988D1*
X-12489Y-448072D1*
X-52740Y-445434D1*
X-60690Y-444556D1*
X-64294Y-443916D1*
X-110491Y-434726D1*
X-121937Y-431641D1*
X-166230Y-416606D1*
X-173683Y-413700D1*
X-176997Y-412149D1*
X-219186Y-391344D1*
X-226195Y-387490D1*
X-229279Y-385521D1*
X-268391Y-359387D1*
X-274838Y-354651D1*
X-277638Y-352295D1*
X-313005Y-321280D1*
X-318778Y-315743D1*
X-321247Y-313042D1*
X-352262Y-277676D1*
X-357263Y-271433D1*
X-359359Y-268433D1*
X-385493Y-229321D1*
X-389636Y-222479D1*
X-391322Y-219231D1*
X-412127Y-177042D1*
X-415342Y-169718D1*
X-416589Y-166278D1*
X-431710Y-121734D1*
X-433941Y-114053D1*
X-434729Y-110479D1*
X-443906Y-64343D1*
X-445116Y-56437D1*
X-445430Y-52791D1*
X-448510Y-5789D1*
X-448502Y5927D1*
X-445434Y52740D1*
X-444556Y60691D1*
X-443916Y64294D1*
X-434739Y110430D1*
X-432831Y118198D1*
X-431726Y121687D1*
X-416606Y166230D1*
X-413700Y173682D1*
X-412149Y176997D1*
X-391344Y219186D1*
X-387491Y226195D1*
X-385521Y229279D1*
X-359387Y268391D1*
X-354651Y274838D1*
X-352296Y277638D1*
X-321280Y313005D1*
X-315744Y318778D1*
X-313043Y321247D1*
X-277676Y352262D1*
X-271434Y357263D1*
X-268433Y359359D1*
X-229321Y385493D1*
X-222479Y389636D1*
X-219231Y391322D1*
X-177042Y412127D1*
X-169718Y415342D1*
X-166278Y416590D1*
X-121734Y431710D1*
X-114053Y433941D1*
X-110479Y434729D1*
X-64343Y443906D1*
X-56437Y445116D1*
X-52791Y445431D1*
X-5852Y448507D1*
X2145Y448674D1*
X5801Y448510D1*
X52740Y445434D1*
X60690Y444556D1*
X64294Y443916D1*
X110430Y434739D1*
X118197Y432831D1*
X121687Y431726D1*
X166230Y416606D1*
X173682Y413700D1*
X176997Y412150D1*
X219186Y391344D1*
X226195Y387491D1*
X229279Y385521D1*
X268443Y359351D1*
X277837Y352121D1*
X1700000Y-700000D2*
D14*
X1789061Y-610939D1*
X1610939D2*
X1789061Y-789061D1*
X239412Y-469917D2*
D17*
X368671D1*
X170779Y-533083D2*
X431836D1*
X184041Y-596250D2*
X495000D1*
X197348Y-659417D2*
X558164D1*
X210655Y-722583D2*
X621328D1*
X223963Y-785750D2*
X684492D1*
X237270Y-848917D2*
X491810D1*
X658181D2*
X747656D1*
X250532Y-912083D2*
X425546D1*
X724444D2*
X810820D1*
X263839Y-975250D2*
X404082D1*
X745909D2*
X873984D1*
X277146Y-1038417D2*
X408320D1*
X741671D2*
X937148D1*
X290454Y-1101583D2*
X440813D1*
X709177D2*
X1000312D1*
X303761Y-1164750D2*
X1063476D1*
X317023Y-1227917D2*
X1126686D1*
X330330Y-1291083D2*
X1761881D1*
X343637Y-1354250D2*
X1761881D1*
X356944Y-1417417D2*
X1761881D1*
X739211Y-1019156D2*
X734377Y-1041784D1*
X726440Y-1063518D1*
X715555Y-1083937D1*
X701935Y-1102641D1*
X685844Y-1119268D1*
X667596Y-1133494D1*
X647545Y-1145042D1*
X626083Y-1153687D1*
X603626Y-1159261D1*
X580612Y-1161655D1*
X557489Y-1160823D1*
X534706Y-1156781D1*
X512708Y-1149607D1*
X491922Y-1139442D1*
X472754Y-1126483D1*
X455575Y-1110982D1*
X440721Y-1093241D1*
X428480Y-1073606D1*
X419092Y-1052458D1*
X412738Y-1030210D1*
X409542Y-1007293D1*
X409566Y-984155D1*
X412811Y-961245D1*
X419212Y-939010D1*
X428646Y-917883D1*
X440928Y-898273D1*
X455820Y-880564D1*
X473032Y-865100D1*
X492228Y-852182D1*
X513035Y-842061D1*
X535048Y-834934D1*
X557839Y-830940D1*
X580964Y-830157D1*
X603973Y-832600D1*
X626418Y-838222D1*
X647862Y-846912D1*
X667888Y-858503D1*
X686106Y-872767D1*
X702162Y-889429D1*
X715742Y-908162D1*
X726583Y-928604D1*
X734474Y-950355D1*
X739260Y-972993D1*
X740850Y-995900D1*
X739211Y-1019156D1*
X1148346Y-1231704D2*
X1133830Y-1227324D1*
X1127549Y-1222451D1*
X320395Y-415296D1*
X160655Y-515157D1*
X194479Y-675908D1*
X350758Y-1418250D1*
X1768258D1*
X1768250Y-1231768D1*
X1403452Y-1231750D1*
X1148346Y-1231704D1*
X463663Y-244917D2*
X735703D1*
X427569Y-308083D2*
X1006406D1*
X472504Y-371250D2*
X1208522D1*
X535668Y-434417D2*
X901543D1*
X1090245D2*
X1244615D1*
X598832Y-497583D2*
X842890D1*
X1148943D2*
X1280709D1*
X661996Y-560750D2*
X824296D1*
X1167491D2*
X1316803D1*
X725161Y-623917D2*
X831087D1*
X1160701D2*
X1352897D1*
X788325Y-687083D2*
X867317D1*
X1124516D2*
X1388990D1*
X851489Y-750250D2*
X1425084D1*
X914653Y-813417D2*
X1461178D1*
X977817Y-876583D2*
X1500325D1*
X1040981Y-939750D2*
X1761914D1*
X1104190Y-1002917D2*
X1761914D1*
X1167355Y-1066083D2*
X1761914D1*
X1160111Y-598256D2*
X1155277Y-620884D1*
X1147340Y-642618D1*
X1136455Y-663037D1*
X1122835Y-681741D1*
X1106744Y-698368D1*
X1088496Y-712594D1*
X1068445Y-724142D1*
X1046983Y-732787D1*
X1024526Y-738361D1*
X1001512Y-740755D1*
X978389Y-739923D1*
X955606Y-735881D1*
X933608Y-728707D1*
X912822Y-718542D1*
X893654Y-705583D1*
X876475Y-690082D1*
X861621Y-672341D1*
X849380Y-652706D1*
X839992Y-631558D1*
X833638Y-609310D1*
X830442Y-586393D1*
X830466Y-563255D1*
X833711Y-540345D1*
X840112Y-518110D1*
X849546Y-496983D1*
X861828Y-477373D1*
X876720Y-459664D1*
X893932Y-444200D1*
X913128Y-431282D1*
X933935Y-421161D1*
X955948Y-414034D1*
X978739Y-410040D1*
X1001864Y-409257D1*
X1024873Y-411700D1*
X1047318Y-417322D1*
X1068762Y-426012D1*
X1088788Y-437603D1*
X1107006Y-451867D1*
X1123062Y-468529D1*
X1136642Y-487262D1*
X1147483Y-507704D1*
X1155374Y-529455D1*
X1160160Y-552093D1*
X1161750Y-575000D1*
X1160111Y-598256D1*
X1573346Y-931704D2*
X1558830Y-927324D1*
X1552549Y-922451D1*
X1502211Y-872107D1*
X1497433Y-865753D1*
X1204312Y-352790D1*
X582207Y-207618D1*
X490849Y-186301D1*
X414595Y-319704D1*
X1163150Y-1068249D1*
X1768237Y-1068250D1*
X1768271Y-931750D1*
X1573346Y-931704D1*
D18*
X1700000Y-100000D3*
D19*
Y-400000D3*
Y-700000D3*
Y-1000000D3*
Y-1300000D3*
D70*
X375000Y-650000D3*
D71*
X650000Y-350000D3*
M02*
