G04 DipTrace 4.2.0.0*
G04 opto board.gbo*
%MOMM*%
G04 #@! TF.FileFunction,Legend,Bot*
G04 #@! TF.Part,Single*
%ADD10C,0.12*%
%ADD44C,0.15686*%
%FSLAX35Y35*%
G04*
G71*
G90*
G75*
G01*
G04 BotSilk*
%LPD*%
X-233571Y-615413D2*
D10*
X-134579Y-516416D1*
X-394221Y-244139D2*
G02X-244136Y-394217I54577J-95505D01*
G01*
G36*
X1725000Y890000D2*
X1740000Y860000D1*
X1710000D1*
X1725000Y890000D1*
G37*
X1980000Y1290000D2*
D10*
X2020000D1*
Y1430000D1*
X1180000D1*
Y1290000D1*
X1220000D1*
G36*
X1990005Y474990D2*
X1960006Y459988D1*
X1960004Y489988D1*
X1990005Y474990D1*
G37*
X2390015Y220006D2*
D10*
X2390017Y180006D1*
X2530017Y180012D1*
X2529983Y1020012D1*
X2389983Y1020006D1*
X2389985Y980006D1*
X233570Y615413D2*
X134578Y516415D1*
X394222Y244139D2*
G02X244136Y394216I-54578J95504D01*
G01*
X-568295Y-509307D2*
D44*
X-496109Y-437119D1*
X-481672Y-451556D1*
X-478971Y-461244D1*
X-481655Y-472219D1*
X-486515Y-481177D1*
X-494710Y-493471D1*
X-511943Y-510704D1*
X-524315Y-518979D1*
X-533193Y-523760D1*
X-544248Y-526524D1*
X-553857Y-523744D1*
X-568295Y-509307D1*
X-512291Y-537673D2*
X-511640Y-545313D1*
X-515689Y-561751D1*
X-443584Y-489642D1*
X1640241Y853789D2*
Y776072D1*
X1643138Y761472D1*
X1646103Y756643D1*
X1651898Y751702D1*
X1657761D1*
X1663556Y756643D1*
X1666453Y761472D1*
X1669418Y776072D1*
Y785731D1*
X1618452Y829419D2*
Y834248D1*
X1615555Y844019D1*
X1612657Y848848D1*
X1606795Y853677D1*
X1595137D1*
X1589342Y848848D1*
X1586444Y844019D1*
X1583479Y834248D1*
Y824589D1*
X1586444Y814819D1*
X1592239Y800331D1*
X1621417Y751702D1*
X1580582D1*
X1978790Y584739D2*
X1901073Y584736D1*
X1886473Y581837D1*
X1881644Y578872D1*
X1876703Y573077D1*
Y567215D1*
X1881645Y561420D1*
X1886474Y558522D1*
X1901074Y555558D1*
X1910733D1*
X1978677Y609425D2*
X1978675Y641432D1*
X1939818Y623978D1*
X1939817Y632738D1*
X1934988Y638533D1*
X1930158Y641430D1*
X1915558Y644395D1*
X1905900Y644394D1*
X1891300Y641429D1*
X1881529Y635633D1*
X1876701Y626873D1*
Y618113D1*
X1881530Y609421D1*
X1886472Y606523D1*
X1896131Y603559D1*
X557977Y542554D2*
X558739Y535121D1*
X555976Y524066D1*
X551116Y515108D1*
X542889Y502688D1*
X525737Y485534D1*
X513317Y477306D1*
X504438Y472525D1*
X493384Y469761D1*
X485871Y470444D1*
X477628Y478687D1*
X476897Y486247D1*
X479708Y497254D1*
X484489Y506132D1*
X492715Y518553D1*
X509868Y535707D1*
X522288Y543934D1*
X531246Y548795D1*
X542252Y551606D1*
X549733Y550796D1*
X557977Y542554D1*
X493415Y490377D2*
X460427Y482069D1*
X510216Y562676D2*
X509565Y570316D1*
X513614Y586754D1*
X441509Y514645D1*
X37136Y750161D2*
X10924Y750160D1*
X2163Y755102D1*
X-802Y759931D1*
X-3700Y769589D1*
Y779360D1*
X-803Y789018D1*
X2162Y793960D1*
X10922Y798790D1*
X37135D1*
X37138Y696703D1*
X16719Y750161D2*
X-3697Y696701D1*
X-22523Y779247D2*
X-28386Y784188D1*
X-37146Y798676D1*
X-37143Y696701D1*
X-741911Y50243D2*
Y24031D1*
X-746852Y15270D1*
X-751681Y12305D1*
X-761340Y9408D1*
X-771110Y9407D1*
X-780769Y12305D1*
X-785710Y15269D1*
X-790540Y24029D1*
X-790541Y50242D1*
X-688453Y50245D1*
X-741911Y29826D2*
X-688452Y9409D1*
X-766168Y-12381D2*
X-770997D1*
X-780768Y-15279D1*
X-785597Y-18177D1*
X-790426Y-24039D1*
Y-35697D1*
X-785597Y-41492D1*
X-780767Y-44389D1*
X-770997Y-47354D1*
X-761338Y-47353D1*
X-751567Y-44388D1*
X-737080Y-38593D1*
X-688451Y-9414D1*
X-688450Y-50249D1*
X1474836Y550247D2*
Y524035D1*
X1469895Y515275D1*
X1465066Y512310D1*
X1455407Y509412D1*
X1445636D1*
X1435978Y512309D1*
X1431036Y515274D1*
X1426207Y524034D1*
X1426206Y550247D1*
X1528294Y550248D1*
X1474836Y529830D2*
X1528295Y509413D1*
X1426320Y484725D2*
X1426321Y452718D1*
X1465179Y470171D1*
Y461411D1*
X1470008Y455616D1*
X1474837Y452719D1*
X1489438Y449754D1*
X1499096D1*
X1513696Y452719D1*
X1523467Y458515D1*
X1528296Y467275D1*
Y476035D1*
X1523466Y484727D1*
X1518525Y487625D1*
X1508866Y490589D1*
M02*
