M48
METRIC,0000.00
T01C0.3
T02C1.02
T03C2.0
T04C2.3
T05C3.0
%
T01
X+001725Y+000675
X+001750Y+000825
X+001900Y+000900
X+001700Y+001200
X+002100Y+001200
X+002500Y+001200
X+002500Y+000600
X+002500Y+000000
X+002100Y+000000
X+001900Y+000300
X+001825Y+000368
X+001500Y+000300
X+001300Y+000600
X+001100Y+000900
X+000900Y+000600
X+000700Y+000900
X+000900Y+001200
X+000500Y+001200
X+000300Y+000900
X+000100Y+001200
X-000100Y+000900
X-000300Y+001200
X-000500Y+000900
X-000700Y+001200
X-000900Y+000900
X-001100Y+000600
X-000900Y+000300
X-001100Y+000000
X-001300Y+000300
X-001300Y-000300
X-001100Y-000600
X-000900Y-000300
X-000700Y-000600
X-000500Y-000900
X-000700Y-001200
X-000900Y-000900
X-000025Y-000725
X-000050Y-000500
X+000225Y-000750
X+000300Y-000650
X+000325Y-000575
X+000400Y-000600
X+000375Y-000675
X+000450Y-000700
X+000425Y-000775
X+000350Y-000750
X+000500Y-000600
X+000600Y-000500
X+000675Y-000425
X+000650Y-000350
X+000725Y-000325
X+000750Y-000400
X+000825Y-000275
X+000625Y-000275
X+000550Y-000300
X+000575Y-000375
X+000725Y-000625
X+000650Y-000750
X+000800Y-000900
X+000875Y-000775
X+001025Y-000925
X+000950Y-001050
X+001075Y-001200
X+001175Y-001050
X+001275Y-001250
X+001175Y-001400
X+000975Y-001400
X+000775Y-001400
X+000575Y-001400
X+000375Y-001400
X+000325Y-001200
X+000275Y-000975
X+000025Y-000975
X+000050Y-001175
X+000100Y-001400
X+001375Y-001400
X+001475Y-001250
X+001575Y-001400
X+001425Y-001050
X+001500Y-000875
X+001375Y-000675
X+001275Y-000500
X+001400Y-000275
X+001175Y-000150
X+001300Y+000000
X+001075Y-000325
X+000820Y-000070
X+000485Y+000005
X+000650Y+000250
X+000500Y+000600
X+001550Y-000550
X+001900Y-000300
X+002100Y-000600
X+002300Y-000900
X+002500Y-000600
X+002500Y-001200
T02
X+001700Y-000100
X+001700Y-000400
X+001700Y-000700
X+001700Y-001000
X+001700Y-001300
T00
M30
